<?xml version="1.0" encoding="UTF-8" standalone="no"?><svg xmlns="http://www.w3.org/2000/svg" xmlns:xlink="http://www.w3.org/1999/xlink" contentStyleType="text/css" height="377px" preserveAspectRatio="none" style="width:1378px;height:377px;background:#FFFFFF;" version="1.1" viewBox="0 0 1378 377" width="1378px" zoomAndPan="magnify"><defs/><g><!--MD5=[7d24e2dc5cb9ad32256d8c330ebb4721]
cluster ClassDiagram--><g id="cluster_ClassDiagram"><path d="M8.5,6 L120.5,6 A3.75,3.75 0 0 1 123,8.5 L130,28.2969 L1368.5,28.2969 A2.5,2.5 0 0 1 1371,30.7969 L1371,367.5 A2.5,2.5 0 0 1 1368.5,370 L8.5,370 A2.5,2.5 0 0 1 6,367.5 L6,8.5 A2.5,2.5 0 0 1 8.5,6 " fill="none" style="stroke:#000000;stroke-width:1.5;"/><line style="stroke:#000000;stroke-width:1.5;" x1="6" x2="130" y1="28.2969" y2="28.2969"/><text fill="#000000" font-family="sans-serif" font-size="14" font-weight="bold" lengthAdjust="spacing" textLength="111" x="10" y="20.9951">ClassDiagram</text></g><!--MD5=[3fd616f346a44cd59a91eb10b19e157c]
class User--><g id="elem_User"><rect codeLine="2" fill="#F1F1F1" height="113.1875" id="User" rx="2.5" ry="2.5" style="stroke:#181818;stroke-width:0.5;" width="155" x="22" y="67.5"/><ellipse cx="79.75" cy="83.5" fill="#ADD1B2" rx="11" ry="11" style="stroke:#181818;stroke-width:1.0;"/><path d="M82.0938,79.1719 C81.1563,78.7344 80.5625,78.5938 79.6875,78.5938 C77.0625,78.5938 75.0625,80.6719 75.0625,83.3906 L75.0625,84.5156 C75.0625,87.0938 77.1719,88.9844 80.0625,88.9844 C81.2813,88.9844 82.4375,88.6875 83.1875,88.1406 C83.7656,87.7344 84.0938,87.2813 84.0938,86.8906 C84.0938,86.4375 83.7031,86.0469 83.2344,86.0469 C83.0156,86.0469 82.8125,86.125 82.625,86.3125 C82.1719,86.7969 82.1719,86.7969 81.9844,86.8906 C81.5625,87.1563 80.875,87.2813 80.1094,87.2813 C78.0625,87.2813 76.7656,86.1875 76.7656,84.4844 L76.7656,83.3906 C76.7656,81.6094 78.0156,80.2969 79.75,80.2969 C80.3281,80.2969 80.9375,80.4531 81.4063,80.7031 C81.8906,80.9844 82.0625,81.2031 82.1563,81.6094 C82.2188,82.0156 82.25,82.1406 82.3906,82.2656 C82.5313,82.4063 82.7656,82.5156 82.9844,82.5156 C83.25,82.5156 83.5156,82.375 83.6875,82.1563 C83.7969,82 83.8281,81.8125 83.8281,81.3906 L83.8281,79.9688 C83.8281,79.5313 83.8125,79.4063 83.7188,79.25 C83.5625,78.9844 83.2813,78.8438 82.9844,78.8438 C82.6875,78.8438 82.4844,78.9375 82.2656,79.25 L82.0938,79.1719 Z " fill="#000000"/><text fill="#000000" font-family="sans-serif" font-size="14" lengthAdjust="spacing" textLength="31" x="100.25" y="88.3467">User</text><line style="stroke:#181818;stroke-width:0.5;" x1="23" x2="176" y1="99.5" y2="99.5"/><text fill="#000000" font-family="sans-serif" font-size="14" lengthAdjust="spacing" textLength="89" x="28" y="116.4951">String Name</text><text fill="#000000" font-family="sans-serif" font-size="14" lengthAdjust="spacing" textLength="87" x="28" y="132.792">String Email</text><text fill="#000000" font-family="sans-serif" font-size="14" lengthAdjust="spacing" textLength="114" x="28" y="149.0889">String Password</text><text fill="#000000" font-family="sans-serif" font-size="14" lengthAdjust="spacing" textLength="143" x="28" y="165.3857">String BankAccount</text><line style="stroke:#181818;stroke-width:0.5;" x1="23" x2="176" y1="172.6875" y2="172.6875"/></g><!--MD5=[7765daaa89518a47edaca4d263fca807]
class CarOwner--><g id="elem_CarOwner"><rect codeLine="9" fill="#F1F1F1" height="80.5938" id="CarOwner" rx="2.5" ry="2.5" style="stroke:#181818;stroke-width:0.5;" width="111" x="44" y="217.5"/><ellipse cx="63.05" cy="233.5" fill="#ADD1B2" rx="11" ry="11" style="stroke:#181818;stroke-width:1.0;"/><path d="M65.3938,229.1719 C64.4563,228.7344 63.8625,228.5938 62.9875,228.5938 C60.3625,228.5938 58.3625,230.6719 58.3625,233.3906 L58.3625,234.5156 C58.3625,237.0938 60.4719,238.9844 63.3625,238.9844 C64.5813,238.9844 65.7375,238.6875 66.4875,238.1406 C67.0656,237.7344 67.3938,237.2813 67.3938,236.8906 C67.3938,236.4375 67.0031,236.0469 66.5344,236.0469 C66.3156,236.0469 66.1125,236.125 65.925,236.3125 C65.4719,236.7969 65.4719,236.7969 65.2844,236.8906 C64.8625,237.1563 64.175,237.2813 63.4094,237.2813 C61.3625,237.2813 60.0656,236.1875 60.0656,234.4844 L60.0656,233.3906 C60.0656,231.6094 61.3156,230.2969 63.05,230.2969 C63.6281,230.2969 64.2375,230.4531 64.7063,230.7031 C65.1906,230.9844 65.3625,231.2031 65.4563,231.6094 C65.5188,232.0156 65.55,232.1406 65.6906,232.2656 C65.8313,232.4063 66.0656,232.5156 66.2844,232.5156 C66.55,232.5156 66.8156,232.375 66.9875,232.1563 C67.0969,232 67.1281,231.8125 67.1281,231.3906 L67.1281,229.9688 C67.1281,229.5313 67.1125,229.4063 67.0188,229.25 C66.8625,228.9844 66.5813,228.8438 66.2844,228.8438 C65.9875,228.8438 65.7844,228.9375 65.5656,229.25 L65.3938,229.1719 Z " fill="#000000"/><text fill="#000000" font-family="sans-serif" font-size="14" lengthAdjust="spacing" textLength="70" x="77.95" y="238.3467">CarOwner</text><line style="stroke:#181818;stroke-width:0.5;" x1="45" x2="154" y1="249.5" y2="249.5"/><line style="stroke:#181818;stroke-width:0.5;" x1="45" x2="154" y1="257.5" y2="257.5"/><text fill="#000000" font-family="sans-serif" font-size="14" lengthAdjust="spacing" textLength="99" x="50" y="274.4951">getCalender()</text><text fill="#000000" font-family="sans-serif" font-size="14" lengthAdjust="spacing" textLength="97" x="50" y="290.792">getLocation()</text></g><!--MD5=[3f0ef310aaa84a542276992c5216544d]
class Car--><g id="elem_Car"><rect codeLine="18" fill="#F1F1F1" height="48" id="Car" rx="2.5" ry="2.5" style="stroke:#181818;stroke-width:0.5;" width="56" x="738.5" y="306"/><ellipse cx="753.5" cy="322" fill="#ADD1B2" rx="11" ry="11" style="stroke:#181818;stroke-width:1.0;"/><path d="M755.8438,317.6719 C754.9063,317.2344 754.3125,317.0938 753.4375,317.0938 C750.8125,317.0938 748.8125,319.1719 748.8125,321.8906 L748.8125,323.0156 C748.8125,325.5938 750.9219,327.4844 753.8125,327.4844 C755.0313,327.4844 756.1875,327.1875 756.9375,326.6406 C757.5156,326.2344 757.8438,325.7813 757.8438,325.3906 C757.8438,324.9375 757.4531,324.5469 756.9844,324.5469 C756.7656,324.5469 756.5625,324.625 756.375,324.8125 C755.9219,325.2969 755.9219,325.2969 755.7344,325.3906 C755.3125,325.6563 754.625,325.7813 753.8594,325.7813 C751.8125,325.7813 750.5156,324.6875 750.5156,322.9844 L750.5156,321.8906 C750.5156,320.1094 751.7656,318.7969 753.5,318.7969 C754.0781,318.7969 754.6875,318.9531 755.1563,319.2031 C755.6406,319.4844 755.8125,319.7031 755.9063,320.1094 C755.9688,320.5156 756,320.6406 756.1406,320.7656 C756.2813,320.9063 756.5156,321.0156 756.7344,321.0156 C757,321.0156 757.2656,320.875 757.4375,320.6563 C757.5469,320.5 757.5781,320.3125 757.5781,319.8906 L757.5781,318.4688 C757.5781,318.0313 757.5625,317.9063 757.4688,317.75 C757.3125,317.4844 757.0313,317.3438 756.7344,317.3438 C756.4375,317.3438 756.2344,317.4375 756.0156,317.75 L755.8438,317.6719 Z " fill="#000000"/><text fill="#000000" font-family="sans-serif" font-size="14" lengthAdjust="spacing" textLength="24" x="767.5" y="326.8467">Car</text><line style="stroke:#181818;stroke-width:0.5;" x1="739.5" x2="793.5" y1="338" y2="338"/><line style="stroke:#181818;stroke-width:0.5;" x1="739.5" x2="793.5" y1="346" y2="346"/></g><!--MD5=[7c2cddbed59e40b88f196417b6677898]
class eMSP--><g id="elem_eMSP"><rect codeLine="22" fill="#F1F1F1" height="48" id="eMSP" rx="2.5" ry="2.5" style="stroke:#181818;stroke-width:0.5;" width="71" x="282" y="234"/><ellipse cx="297" cy="250" fill="#ADD1B2" rx="11" ry="11" style="stroke:#181818;stroke-width:1.0;"/><path d="M299.3438,245.6719 C298.4063,245.2344 297.8125,245.0938 296.9375,245.0938 C294.3125,245.0938 292.3125,247.1719 292.3125,249.8906 L292.3125,251.0156 C292.3125,253.5938 294.4219,255.4844 297.3125,255.4844 C298.5313,255.4844 299.6875,255.1875 300.4375,254.6406 C301.0156,254.2344 301.3438,253.7813 301.3438,253.3906 C301.3438,252.9375 300.9531,252.5469 300.4844,252.5469 C300.2656,252.5469 300.0625,252.625 299.875,252.8125 C299.4219,253.2969 299.4219,253.2969 299.2344,253.3906 C298.8125,253.6563 298.125,253.7813 297.3594,253.7813 C295.3125,253.7813 294.0156,252.6875 294.0156,250.9844 L294.0156,249.8906 C294.0156,248.1094 295.2656,246.7969 297,246.7969 C297.5781,246.7969 298.1875,246.9531 298.6563,247.2031 C299.1406,247.4844 299.3125,247.7031 299.4063,248.1094 C299.4688,248.5156 299.5,248.6406 299.6406,248.7656 C299.7813,248.9063 300.0156,249.0156 300.2344,249.0156 C300.5,249.0156 300.7656,248.875 300.9375,248.6563 C301.0469,248.5 301.0781,248.3125 301.0781,247.8906 L301.0781,246.4688 C301.0781,246.0313 301.0625,245.9063 300.9688,245.75 C300.8125,245.4844 300.5313,245.3438 300.2344,245.3438 C299.9375,245.3438 299.7344,245.4375 299.5156,245.75 L299.3438,245.6719 Z " fill="#000000"/><text fill="#000000" font-family="sans-serif" font-size="14" lengthAdjust="spacing" textLength="39" x="311" y="254.8467">eMSP</text><line style="stroke:#181818;stroke-width:0.5;" x1="283" x2="352" y1="266" y2="266"/><line style="stroke:#181818;stroke-width:0.5;" x1="283" x2="352" y1="274" y2="274"/></g><!--MD5=[79eb2d862cef9730b5f9dcab29e35f17]
class Battery--><g id="elem_Battery"><rect codeLine="64" fill="#F1F1F1" height="80.5938" id="Battery" rx="2.5" ry="2.5" style="stroke:#181818;stroke-width:0.5;" width="151" x="977.5" y="214.5"/><ellipse cx="1021.3" cy="230.5" fill="#ADD1B2" rx="11" ry="11" style="stroke:#181818;stroke-width:1.0;"/><path d="M1023.6438,226.1719 C1022.7063,225.7344 1022.1125,225.5938 1021.2375,225.5938 C1018.6125,225.5938 1016.6125,227.6719 1016.6125,230.3906 L1016.6125,231.5156 C1016.6125,234.0938 1018.7219,235.9844 1021.6125,235.9844 C1022.8313,235.9844 1023.9875,235.6875 1024.7375,235.1406 C1025.3156,234.7344 1025.6438,234.2813 1025.6438,233.8906 C1025.6438,233.4375 1025.2531,233.0469 1024.7844,233.0469 C1024.5656,233.0469 1024.3625,233.125 1024.175,233.3125 C1023.7219,233.7969 1023.7219,233.7969 1023.5344,233.8906 C1023.1125,234.1563 1022.425,234.2813 1021.6594,234.2813 C1019.6125,234.2813 1018.3156,233.1875 1018.3156,231.4844 L1018.3156,230.3906 C1018.3156,228.6094 1019.5656,227.2969 1021.3,227.2969 C1021.8781,227.2969 1022.4875,227.4531 1022.9563,227.7031 C1023.4406,227.9844 1023.6125,228.2031 1023.7063,228.6094 C1023.7688,229.0156 1023.8,229.1406 1023.9406,229.2656 C1024.0813,229.4063 1024.3156,229.5156 1024.5344,229.5156 C1024.8,229.5156 1025.0656,229.375 1025.2375,229.1563 C1025.3469,229 1025.3781,228.8125 1025.3781,228.3906 L1025.3781,226.9688 C1025.3781,226.5313 1025.3625,226.4063 1025.2688,226.25 C1025.1125,225.9844 1024.8313,225.8438 1024.5344,225.8438 C1024.2375,225.8438 1024.0344,225.9375 1023.8156,226.25 L1023.6438,226.1719 Z " fill="#000000"/><text fill="#000000" font-family="sans-serif" font-size="14" lengthAdjust="spacing" textLength="55" x="1041.7" y="235.3467">Battery</text><line style="stroke:#181818;stroke-width:0.5;" x1="978.5" x2="1127.5" y1="246.5" y2="246.5"/><text fill="#000000" font-family="sans-serif" font-size="14" lengthAdjust="spacing" textLength="125" x="983.5" y="263.4951">Int BatteryStatus</text><text fill="#000000" font-family="sans-serif" font-size="14" lengthAdjust="spacing" textLength="139" x="983.5" y="279.792">String BatteryType</text><line style="stroke:#181818;stroke-width:0.5;" x1="978.5" x2="1127.5" y1="287.0938" y2="287.0938"/></g><!--MD5=[721e671add19cffe7a5f041a72e15595]
class CPO--><g id="elem_CPO"><rect codeLine="26" fill="#F1F1F1" height="48" id="CPO" rx="2.5" ry="2.5" style="stroke:#181818;stroke-width:0.5;" width="62" x="467" y="98"/><ellipse cx="482" cy="114" fill="#ADD1B2" rx="11" ry="11" style="stroke:#181818;stroke-width:1.0;"/><path d="M484.3438,109.6719 C483.4063,109.2344 482.8125,109.0938 481.9375,109.0938 C479.3125,109.0938 477.3125,111.1719 477.3125,113.8906 L477.3125,115.0156 C477.3125,117.5938 479.4219,119.4844 482.3125,119.4844 C483.5313,119.4844 484.6875,119.1875 485.4375,118.6406 C486.0156,118.2344 486.3438,117.7813 486.3438,117.3906 C486.3438,116.9375 485.9531,116.5469 485.4844,116.5469 C485.2656,116.5469 485.0625,116.625 484.875,116.8125 C484.4219,117.2969 484.4219,117.2969 484.2344,117.3906 C483.8125,117.6563 483.125,117.7813 482.3594,117.7813 C480.3125,117.7813 479.0156,116.6875 479.0156,114.9844 L479.0156,113.8906 C479.0156,112.1094 480.2656,110.7969 482,110.7969 C482.5781,110.7969 483.1875,110.9531 483.6563,111.2031 C484.1406,111.4844 484.3125,111.7031 484.4063,112.1094 C484.4688,112.5156 484.5,112.6406 484.6406,112.7656 C484.7813,112.9063 485.0156,113.0156 485.2344,113.0156 C485.5,113.0156 485.7656,112.875 485.9375,112.6563 C486.0469,112.5 486.0781,112.3125 486.0781,111.8906 L486.0781,110.4688 C486.0781,110.0313 486.0625,109.9063 485.9688,109.75 C485.8125,109.4844 485.5313,109.3438 485.2344,109.3438 C484.9375,109.3438 484.7344,109.4375 484.5156,109.75 L484.3438,109.6719 Z " fill="#000000"/><text fill="#000000" font-family="sans-serif" font-size="14" lengthAdjust="spacing" textLength="30" x="496" y="118.8467">CPO</text><line style="stroke:#181818;stroke-width:0.5;" x1="468" x2="528" y1="130" y2="130"/><line style="stroke:#181818;stroke-width:0.5;" x1="468" x2="528" y1="138" y2="138"/></g><!--MD5=[7ca35fa42fdd2584ef5892c05d53c42e]
class ChargingStation--><g id="elem_ChargingStation"><rect codeLine="40" fill="#F1F1F1" height="113.1875" id="ChargingStation" rx="2.5" ry="2.5" style="stroke:#181818;stroke-width:0.5;" width="247" x="643" y="41.5"/><ellipse cx="703.75" cy="57.5" fill="#ADD1B2" rx="11" ry="11" style="stroke:#181818;stroke-width:1.0;"/><path d="M706.0938,53.1719 C705.1563,52.7344 704.5625,52.5938 703.6875,52.5938 C701.0625,52.5938 699.0625,54.6719 699.0625,57.3906 L699.0625,58.5156 C699.0625,61.0938 701.1719,62.9844 704.0625,62.9844 C705.2813,62.9844 706.4375,62.6875 707.1875,62.1406 C707.7656,61.7344 708.0938,61.2813 708.0938,60.8906 C708.0938,60.4375 707.7031,60.0469 707.2344,60.0469 C707.0156,60.0469 706.8125,60.125 706.625,60.3125 C706.1719,60.7969 706.1719,60.7969 705.9844,60.8906 C705.5625,61.1563 704.875,61.2813 704.1094,61.2813 C702.0625,61.2813 700.7656,60.1875 700.7656,58.4844 L700.7656,57.3906 C700.7656,55.6094 702.0156,54.2969 703.75,54.2969 C704.3281,54.2969 704.9375,54.4531 705.4063,54.7031 C705.8906,54.9844 706.0625,55.2031 706.1563,55.6094 C706.2188,56.0156 706.25,56.1406 706.3906,56.2656 C706.5313,56.4063 706.7656,56.5156 706.9844,56.5156 C707.25,56.5156 707.5156,56.375 707.6875,56.1563 C707.7969,56 707.8281,55.8125 707.8281,55.3906 L707.8281,53.9688 C707.8281,53.5313 707.8125,53.4063 707.7188,53.25 C707.5625,52.9844 707.2813,52.8438 706.9844,52.8438 C706.6875,52.8438 706.4844,52.9375 706.2656,53.25 L706.0938,53.1719 Z " fill="#000000"/><text fill="#000000" font-family="sans-serif" font-size="14" lengthAdjust="spacing" textLength="117" x="724.25" y="62.3467">ChargingStation</text><line style="stroke:#181818;stroke-width:0.5;" x1="644" x2="889" y1="73.5" y2="73.5"/><text fill="#000000" font-family="sans-serif" font-size="14" lengthAdjust="spacing" textLength="110" x="649" y="90.4951">String Location</text><text fill="#000000" font-family="sans-serif" font-size="14" lengthAdjust="spacing" textLength="235" x="649" y="106.792">Int AmountFreeChargingSockets</text><text fill="#000000" font-family="sans-serif" font-size="14" lengthAdjust="spacing" textLength="219" x="649" y="123.0889">Int AvailableEnergyInBatteries</text><text fill="#000000" font-family="sans-serif" font-size="14" lengthAdjust="spacing" textLength="208" x="649" y="139.3857">Int AmountOfConnectedCars</text><line style="stroke:#181818;stroke-width:0.5;" x1="644" x2="889" y1="146.6875" y2="146.6875"/></g><!--MD5=[842f2ac2ab2029cdf9d42ffc1e0bbc25]
class CPMS--><g id="elem_CPMS"><rect codeLine="32" fill="#F1F1F1" height="48" id="CPMS" rx="2.5" ry="2.5" style="stroke:#181818;stroke-width:0.5;" width="72" x="462" y="198"/><ellipse cx="477" cy="214" fill="#ADD1B2" rx="11" ry="11" style="stroke:#181818;stroke-width:1.0;"/><path d="M479.3438,209.6719 C478.4063,209.2344 477.8125,209.0938 476.9375,209.0938 C474.3125,209.0938 472.3125,211.1719 472.3125,213.8906 L472.3125,215.0156 C472.3125,217.5938 474.4219,219.4844 477.3125,219.4844 C478.5313,219.4844 479.6875,219.1875 480.4375,218.6406 C481.0156,218.2344 481.3438,217.7813 481.3438,217.3906 C481.3438,216.9375 480.9531,216.5469 480.4844,216.5469 C480.2656,216.5469 480.0625,216.625 479.875,216.8125 C479.4219,217.2969 479.4219,217.2969 479.2344,217.3906 C478.8125,217.6563 478.125,217.7813 477.3594,217.7813 C475.3125,217.7813 474.0156,216.6875 474.0156,214.9844 L474.0156,213.8906 C474.0156,212.1094 475.2656,210.7969 477,210.7969 C477.5781,210.7969 478.1875,210.9531 478.6563,211.2031 C479.1406,211.4844 479.3125,211.7031 479.4063,212.1094 C479.4688,212.5156 479.5,212.6406 479.6406,212.7656 C479.7813,212.9063 480.0156,213.0156 480.2344,213.0156 C480.5,213.0156 480.7656,212.875 480.9375,212.6563 C481.0469,212.5 481.0781,212.3125 481.0781,211.8906 L481.0781,210.4688 C481.0781,210.0313 481.0625,209.9063 480.9688,209.75 C480.8125,209.4844 480.5313,209.3438 480.2344,209.3438 C479.9375,209.3438 479.7344,209.4375 479.5156,209.75 L479.3438,209.6719 Z " fill="#000000"/><text fill="#000000" font-family="sans-serif" font-size="14" lengthAdjust="spacing" textLength="40" x="491" y="218.8467">CPMS</text><line style="stroke:#181818;stroke-width:0.5;" x1="463" x2="533" y1="230" y2="230"/><line style="stroke:#181818;stroke-width:0.5;" x1="463" x2="533" y1="238" y2="238"/></g><!--MD5=[506196395dc2514682c97db29a9bd79c]
class DSO--><g id="elem_DSO"><rect codeLine="35" fill="#F1F1F1" height="80.5938" id="DSO" rx="2.5" ry="2.5" style="stroke:#181818;stroke-width:0.5;" width="151" x="691" y="189.5"/><ellipse cx="746.75" cy="205.5" fill="#ADD1B2" rx="11" ry="11" style="stroke:#181818;stroke-width:1.0;"/><path d="M749.0938,201.1719 C748.1563,200.7344 747.5625,200.5938 746.6875,200.5938 C744.0625,200.5938 742.0625,202.6719 742.0625,205.3906 L742.0625,206.5156 C742.0625,209.0938 744.1719,210.9844 747.0625,210.9844 C748.2813,210.9844 749.4375,210.6875 750.1875,210.1406 C750.7656,209.7344 751.0938,209.2813 751.0938,208.8906 C751.0938,208.4375 750.7031,208.0469 750.2344,208.0469 C750.0156,208.0469 749.8125,208.125 749.625,208.3125 C749.1719,208.7969 749.1719,208.7969 748.9844,208.8906 C748.5625,209.1563 747.875,209.2813 747.1094,209.2813 C745.0625,209.2813 743.7656,208.1875 743.7656,206.4844 L743.7656,205.3906 C743.7656,203.6094 745.0156,202.2969 746.75,202.2969 C747.3281,202.2969 747.9375,202.4531 748.4063,202.7031 C748.8906,202.9844 749.0625,203.2031 749.1563,203.6094 C749.2188,204.0156 749.25,204.1406 749.3906,204.2656 C749.5313,204.4063 749.7656,204.5156 749.9844,204.5156 C750.25,204.5156 750.5156,204.375 750.6875,204.1563 C750.7969,204 750.8281,203.8125 750.8281,203.3906 L750.8281,201.9688 C750.8281,201.5313 750.8125,201.4063 750.7188,201.25 C750.5625,200.9844 750.2813,200.8438 749.9844,200.8438 C749.6875,200.8438 749.4844,200.9375 749.2656,201.25 L749.0938,201.1719 Z " fill="#000000"/><text fill="#000000" font-family="sans-serif" font-size="14" lengthAdjust="spacing" textLength="31" x="767.25" y="210.3467">DSO</text><line style="stroke:#181818;stroke-width:0.5;" x1="692" x2="841" y1="221.5" y2="221.5"/><text fill="#000000" font-family="sans-serif" font-size="14" lengthAdjust="spacing" textLength="139" x="697" y="238.4951">Int AvailableEnergy</text><text fill="#000000" font-family="sans-serif" font-size="14" lengthAdjust="spacing" textLength="91" x="697" y="254.792">Double Price</text><line style="stroke:#181818;stroke-width:0.5;" x1="692" x2="841" y1="262.0938" y2="262.0938"/></g><!--MD5=[a27cb4293b165c0b3f34e14046e890a0]
class ChargingSocket--><g id="elem_ChargingSocket"><rect codeLine="50" fill="#F1F1F1" height="113.1875" id="ChargingSocket" rx="2.5" ry="2.5" style="stroke:#181818;stroke-width:0.5;" width="204" x="951" y="41.5"/><ellipse cx="991.65" cy="57.5" fill="#ADD1B2" rx="11" ry="11" style="stroke:#181818;stroke-width:1.0;"/><path d="M993.9938,53.1719 C993.0563,52.7344 992.4625,52.5938 991.5875,52.5938 C988.9625,52.5938 986.9625,54.6719 986.9625,57.3906 L986.9625,58.5156 C986.9625,61.0938 989.0719,62.9844 991.9625,62.9844 C993.1813,62.9844 994.3375,62.6875 995.0875,62.1406 C995.6656,61.7344 995.9938,61.2813 995.9938,60.8906 C995.9938,60.4375 995.6031,60.0469 995.1344,60.0469 C994.9156,60.0469 994.7125,60.125 994.525,60.3125 C994.0719,60.7969 994.0719,60.7969 993.8844,60.8906 C993.4625,61.1563 992.775,61.2813 992.0094,61.2813 C989.9625,61.2813 988.6656,60.1875 988.6656,58.4844 L988.6656,57.3906 C988.6656,55.6094 989.9156,54.2969 991.65,54.2969 C992.2281,54.2969 992.8375,54.4531 993.3063,54.7031 C993.7906,54.9844 993.9625,55.2031 994.0563,55.6094 C994.1188,56.0156 994.15,56.1406 994.2906,56.2656 C994.4313,56.4063 994.6656,56.5156 994.8844,56.5156 C995.15,56.5156 995.4156,56.375 995.5875,56.1563 C995.6969,56 995.7281,55.8125 995.7281,55.3906 L995.7281,53.9688 C995.7281,53.5313 995.7125,53.4063 995.6188,53.25 C995.4625,52.9844 995.1813,52.8438 994.8844,52.8438 C994.5875,52.8438 994.3844,52.9375 994.1656,53.25 L993.9938,53.1719 Z " fill="#000000"/><text fill="#000000" font-family="sans-serif" font-size="14" lengthAdjust="spacing" textLength="115" x="1011.35" y="62.3467">ChargingSocket</text><line style="stroke:#181818;stroke-width:0.5;" x1="952" x2="1154" y1="73.5" y2="73.5"/><text fill="#000000" font-family="sans-serif" font-size="14" lengthAdjust="spacing" textLength="91" x="957" y="90.4951">Double Price</text><text fill="#000000" font-family="sans-serif" font-size="14" lengthAdjust="spacing" textLength="140" x="957" y="106.792">Boolean isOccupied</text><text fill="#000000" font-family="sans-serif" font-size="14" lengthAdjust="spacing" textLength="125" x="957" y="123.0889">Int TimeUntilFree</text><text fill="#000000" font-family="sans-serif" font-size="14" lengthAdjust="spacing" textLength="192" x="957" y="139.3857">Int PowerAlreadyAbsorbed</text><line style="stroke:#181818;stroke-width:0.5;" x1="952" x2="1154" y1="146.6875" y2="146.6875"/></g><!--MD5=[fa9fd67bc62ccc0afe84a760779729d3]
class ChargingTypes--><g id="elem_ChargingTypes"><rect codeLine="58" fill="#F1F1F1" height="96.8906" id="ChargingTypes" rx="2.5" ry="2.5" style="stroke:#181818;stroke-width:0.5;" width="139" x="1216" y="49.5"/><ellipse cx="1231" cy="65.5" fill="#EB937F" rx="11" ry="11" style="stroke:#181818;stroke-width:1.0;"/><path d="M1229.7969,66.375 L1231.25,66.375 L1231.25,66.4844 C1231.25,66.8906 1231.2813,67.0469 1231.3594,67.2031 C1231.5156,67.4531 1231.7969,67.6094 1232.0938,67.6094 C1232.3438,67.6094 1232.6094,67.4688 1232.7656,67.25 C1232.8906,67.0938 1232.9219,66.9375 1232.9219,66.4844 L1232.9219,64.5625 C1232.9219,64.4063 1232.9219,64.3594 1232.9063,64.2031 C1232.8438,63.7344 1232.5313,63.4219 1232.0781,63.4219 C1231.8281,63.4219 1231.5625,63.5625 1231.3906,63.7813 C1231.2813,63.9531 1231.25,64.1094 1231.25,64.5625 L1231.25,64.6875 L1229.7969,64.6875 L1229.7969,62.2813 L1233.7813,62.2813 L1233.7813,63.1406 C1233.7813,63.5469 1233.8125,63.7188 1233.8906,63.875 C1234.0625,64.125 1234.3438,64.2813 1234.625,64.2813 C1234.8906,64.2813 1235.1563,64.1406 1235.3281,63.9219 C1235.4375,63.75 1235.4688,63.6094 1235.4688,63.1406 L1235.4688,60.5938 L1227.8438,60.5938 C1227.4063,60.5938 1227.2813,60.6094 1227.125,60.7031 C1226.875,60.8594 1226.7188,61.1563 1226.7188,61.4375 C1226.7188,61.7188 1226.8594,61.9688 1227.0781,62.1406 C1227.2344,62.25 1227.4219,62.2813 1227.8438,62.2813 L1228.0938,62.2813 L1228.0938,68.7969 L1227.8438,68.7969 C1227.4375,68.7969 1227.2813,68.8125 1227.125,68.9219 C1226.875,69.0938 1226.7188,69.3594 1226.7188,69.6563 C1226.7188,69.9219 1226.8594,70.1719 1227.0781,70.3281 C1227.2188,70.4531 1227.4531,70.5 1227.8438,70.5 L1235.8438,70.5 L1235.8438,67.9219 C1235.8438,67.4844 1235.8125,67.3438 1235.7344,67.1875 C1235.5625,66.9375 1235.2813,66.7813 1235,66.7813 C1234.7344,66.7813 1234.4688,66.8906 1234.2969,67.1406 C1234.1875,67.2969 1234.1563,67.4375 1234.1563,67.9219 L1234.1563,68.7969 L1229.7969,68.7969 L1229.7969,66.375 Z " fill="#000000"/><text fill="#000000" font-family="sans-serif" font-size="14" lengthAdjust="spacing" textLength="107" x="1245" y="70.3467">ChargingTypes</text><line style="stroke:#181818;stroke-width:0.5;" x1="1217" x2="1354" y1="81.5" y2="81.5"/><text fill="#000000" font-family="sans-serif" font-size="14" lengthAdjust="spacing" textLength="46" x="1222" y="98.4951">SLOW,</text><text fill="#000000" font-family="sans-serif" font-size="14" lengthAdjust="spacing" textLength="40" x="1222" y="114.792">FAST,</text><text fill="#000000" font-family="sans-serif" font-size="14" lengthAdjust="spacing" textLength="44" x="1222" y="131.0889">RAPID</text><line style="stroke:#181818;stroke-width:0.5;" x1="1217" x2="1354" y1="138.3906" y2="138.3906"/></g><!--MD5=[82c8a91f4b36d0d862a59db5eb3bce33]
reverse link User to CarOwner--><g id="link_User_CarOwner"><path codeLine="13" d="M99.5,200.73 C99.5,206.298 99.5,211.866 99.5,217.434 " fill="none" id="User-backto-CarOwner" style="stroke:#181818;stroke-width:1.0;"/><polygon fill="none" points="92.5,200.571,99.5,180.571,106.5,200.571,92.5,200.571" style="stroke:#181818;stroke-width:1.0;"/></g><!--MD5=[b04c4da74d0c44acd7d6c5f256b08a29]
link CarOwner to Car--><g id="link_CarOwner_Car"><path codeLine="14" d="M155.254,273.163 C191.039,282.453 238.953,293.7279 282,300 C454.481,325.1311 664.579,329.2335 738.342,329.8846 " fill="none" id="CarOwner-Car" style="stroke:#181818;stroke-width:1.0;"/><polygon fill="#000000" points="392.9765,304.0505,384.2585,300.2496,383.6894,306.0999,392.9765,304.0505" style="stroke:#000000;stroke-width:1.0;"/><text fill="#000000" font-family="sans-serif" font-size="13" lengthAdjust="spacing" textLength="34" x="397" y="308.0669">owns</text><text fill="#000000" font-family="sans-serif" font-size="13" lengthAdjust="spacing" textLength="8" x="162.91" y="288.1681">1</text><text fill="#000000" font-family="sans-serif" font-size="13" lengthAdjust="spacing" textLength="8" x="722.5035" y="343.7677">1</text></g><!--MD5=[939a077a3fc74a387e39e12c2e8d2c7e]
link CarOwner to eMSP--><g id="link_CarOwner_eMSP"><path codeLine="15" d="M155.006,258 C194.874,258 247.752,258 281.953,258 " fill="none" id="CarOwner-eMSP" style="stroke:#181818;stroke-width:1.0;"/><polygon fill="#000000" points="217,249.5664,207.9549,246.6275,207.9549,252.5053,217,249.5664" style="stroke:#000000;stroke-width:1.0;"/><text fill="#000000" font-family="sans-serif" font-size="13" lengthAdjust="spacing" textLength="30" x="221" y="254.0669">uses</text></g><!--MD5=[c1b58a474059c8b78830eecd3c13eca5]
link Car to Battery--><g id="link_Car_Battery"><path codeLine="19" d="M794.522,322.8766 C833.223,312.674 906.212,293.4326 964.623,278.034 " fill="none" id="Car-to-Battery" style="stroke:#181818;stroke-width:1.0;"/><polygon fill="#181818" points="977.226,274.712,970.4048,272.373,965.6221,277.7699,972.4434,280.1089,977.226,274.712" style="stroke:#181818;stroke-width:1.0;"/><text fill="#000000" font-family="sans-serif" font-size="13" lengthAdjust="spacing" textLength="8" x="802.3274" y="335.0515">1</text><text fill="#000000" font-family="sans-serif" font-size="13" lengthAdjust="spacing" textLength="8" x="961.6225" y="289.3982">1</text></g><!--MD5=[2dbc5d61c19bf913c004d64778255296]
reverse link User to CPO--><g id="link_User_CPO"><path codeLine="27" d="M197.551,123.51 C285.551,123.067 409.901,122.439 466.644,122.153 " fill="none" id="User-backto-CPO" style="stroke:#181818;stroke-width:1.0;"/><polygon fill="none" points="197.454,130.511,177.419,123.612,197.384,116.511,197.454,130.511" style="stroke:#181818;stroke-width:1.0;"/></g><!--MD5=[84dd372efcb4d6fb59d2d8ce8f73e636]
link CPO to ChargingStation--><g id="link_CPO_ChargingStation"><path codeLine="28" d="M529.053,119.294 C557.027,116.774 600.636,112.847 642.822,109.048 " fill="none" id="CPO-ChargingStation" style="stroke:#181818;stroke-width:1.0;"/><polygon fill="#000000" points="573.9798,104.1179,564.7076,102.0022,565.2348,107.8563,573.9798,104.1179" style="stroke:#000000;stroke-width:1.0;"/><text fill="#000000" font-family="sans-serif" font-size="13" lengthAdjust="spacing" textLength="34" x="578" y="109.0669">owns</text><text fill="#000000" font-family="sans-serif" font-size="13" lengthAdjust="spacing" textLength="8" x="537.159" y="132.4849">1</text><text fill="#000000" font-family="sans-serif" font-size="13" lengthAdjust="spacing" textLength="7" x="628.0721" y="122.2435">*</text></g><!--MD5=[2b178be63bf32989e1e0805b88603354]
reverse link CPMS to CPO--><g id="link_CPMS_CPO"><path codeLine="29" d="M498,184.551 C498,171.766 498,157.81 498,146.331 " fill="none" id="CPMS-backto-CPO" style="stroke:#181818;stroke-width:1.0;"/><polygon fill="#181818" points="498,197.793,502,191.793,498,185.793,494,191.793,498,197.793" style="stroke:#181818;stroke-width:1.0;"/><polygon fill="#000000" points="469,177.0664,471.9389,168.0213,466.0611,168.0213,469,177.0664" style="stroke:#000000;stroke-width:1.0;"/><text fill="#000000" font-family="sans-serif" font-size="13" lengthAdjust="spacing" textLength="30" x="478" y="176.5669">uses</text><text fill="#000000" font-family="sans-serif" font-size="13" lengthAdjust="spacing" textLength="8" x="488.975" y="186.752">1</text><text fill="#000000" font-family="sans-serif" font-size="13" lengthAdjust="spacing" textLength="8" x="489.025" y="166.1729">1</text></g><!--MD5=[25640de9ef42a6c6c0c4432daa832435]
link ChargingStation to Battery--><g id="link_ChargingStation_Battery"><path codeLine="46" d="M870.211,154.681 C901.966,172.204 936.576,191.304 966.995,208.091 " fill="none" id="ChargingStation-to-Battery" style="stroke:#181818;stroke-width:1.0;"/><polygon fill="#181818" points="978.434,214.403,975.1137,208.0018,967.9279,208.6046,971.2481,215.0059,978.434,214.403" style="stroke:#181818;stroke-width:1.0;"/><text fill="#000000" font-family="sans-serif" font-size="13" lengthAdjust="spacing" textLength="8" x="874.3633" y="174.5666">1</text><text fill="#000000" font-family="sans-serif" font-size="13" lengthAdjust="spacing" textLength="7" x="962.4076" y="205.9398">*</text></g><!--MD5=[a12abc7ffb919d2d1eaccc5eea6e724d]
link ChargingStation to ChargingSocket--><g id="link_ChargingStation_ChargingSocket"><path codeLine="47" d="M890.218,98 C905.804,98 921.71,98 937.166,98 " fill="none" id="ChargingStation-to-ChargingSocket" style="stroke:#181818;stroke-width:1.0;"/><polygon fill="#181818" points="950.615,98,944.615,94,938.615,98,944.615,102,950.615,98" style="stroke:#181818;stroke-width:1.0;"/><text fill="#000000" font-family="sans-serif" font-size="13" lengthAdjust="spacing" textLength="8" x="898.0008" y="110.5223">1</text><text fill="#000000" font-family="sans-serif" font-size="13" lengthAdjust="spacing" textLength="23" x="919.9634" y="110.569">1..*</text></g><!--MD5=[b8953c71d061bfb0d28316a8530a9533]
link ChargingSocket to ChargingTypes--><g id="link_ChargingSocket_ChargingTypes"><path codeLine="56" d="M1155.1,98 C1175.66,98 1196.84,98 1215.95,98 " fill="none" id="ChargingSocket-ChargingTypes" style="stroke:#181818;stroke-width:1.0;"/><text fill="#000000" font-family="sans-serif" font-size="13" lengthAdjust="spacing" textLength="8" x="1199.9055" y="110.9005">1</text></g><!--MD5=[16725919cb4ff2cec68eb9a460dfb181]
link eMSP to CPMS--><g id="link_eMSP_CPMS"><path codeLine="70" d="M353.34,250.973 C384.691,244.651 430.526,235.407 461.943,229.07 " fill="none" id="eMSP-CPMS" style="stroke:#181818;stroke-width:1.0;"/><text fill="#000000" font-family="sans-serif" font-size="13" lengthAdjust="spacing" textLength="7" x="361.0851" y="263.1461">*</text><text fill="#000000" font-family="sans-serif" font-size="13" lengthAdjust="spacing" textLength="7" x="446.7844" y="244.1557">*</text></g><!--MD5=[69228b457a04e0d9628dc047bef4ff0e]
link CPMS to DSO--><g id="link_CPMS_DSO"><path codeLine="71" d="M534.114,223.054 C573.831,224.246 639.649,226.222 690.954,227.762 " fill="none" id="CPMS-DSO" style="stroke:#181818;stroke-width:1.0;"/><text fill="#000000" font-family="sans-serif" font-size="13" lengthAdjust="spacing" textLength="7" x="541.913" y="236.818">*</text><text fill="#000000" font-family="sans-serif" font-size="13" lengthAdjust="spacing" textLength="7" x="675.8024" y="240.3993">*</text></g><!--MD5=[474cbdde4f43f36900e618caa49b429e]
link eMSP to Car--><!--MD5=[b7abe8c531f702cb5ba6371cde100e79]
link CPMS to Car--><!--MD5=[9ef74f80aa3a784d5699696f9f6a6a41]
@startuml
package "ClassDiagram" {
class User
User : String Name
User : String Email
User : String Password 
User : String BankAccount


class CarOwner
CarOwner : getCalender()
CarOwner : getLocation()

CarOwner -left-|> User
CarOwner "1" - - "1" Car : owns >
CarOwner - - eMSP : uses >


class Car
Car "1" - -* "1" Battery


class eMSP



class CPO
CPO -left-|> User
CPO "1" - - "*" ChargingStation : owns >
CPO "1" -left-* "1" CPMS : uses >


class CPMS


class DSO
DSO : Int AvailableEnergy
DSO : Double Price


class ChargingStation
ChargingStation : String Location
ChargingStation : Int AmountFreeChargingSockets
ChargingStation : Int AvailableEnergyInBatteries
ChargingStation : Int AmountOfConnectedCars

ChargingStation "1" - -* "*" Battery
ChargingStation "1" - -* "1..*" ChargingSocket


class ChargingSocket
ChargingSocket : Double Price
ChargingSocket : Boolean isOccupied
ChargingSocket : Int TimeUntilFree
ChargingSocket : Int PowerAlreadyAbsorbed

ChargingSocket - - "1" ChargingTypes

enum ChargingTypes {
  SLOW,
  FAST,
  RAPID
}

class Battery
Battery : Int BatteryStatus
Battery : String BatteryType



eMSP "*" - - "*" CPMS
CPMS "*" - - "*" DSO


eMSP -[hidden]down- Car
CPMS -[hidden]down- Car
left to right direction
}
@enduml

PlantUML version 1.2022.14beta4(Unknown compile time)
(GPL source distribution)
Java Runtime: Java(TM) SE Runtime Environment
JVM: Java HotSpot(TM) 64-Bit Server VM
Default Encoding: UTF-8
Language: en
Country: US
--></g></svg>